<svg height="2500" width="2500" xmlns="http://www.w3.org/2000/svg" viewBox="41.443000000000005 59.37 439.557 410.1499999999999"><g fill="#f1f1f1"><path d="M173 83c9-.39 17.59.83 26.44 2.31l4.25.69c2.12.35 4.24.69 6.36 1.04 6.72 1.09 13.46 2.09 20.2 3.06 3.03.44 5.83.93 8.75 1.9-.4 6.69-3.07 11.56-6.25 17.38l-3.27 6.09c-.56 1.06-1.13 2.12-1.72 3.21-1.81 3.42-3.57 6.86-5.31 10.32-.57 1.13-1.15 2.27-1.75 3.45-1.12 2.21-2.23 4.43-3.33 6.65-.52 1.01-1.03 2.01-1.56 3.04-.44.9-.89 1.79-1.35 2.7-1.61 2.38-2.81 3.15-5.46 4.16-1.32-2.22-2.63-4.45-3.94-6.69-.56-.94-.56-.94-1.13-1.89-2.01-3.46-3.44-6.38-3.93-10.42-26.49 9.43-52.05 24.05-72 44l-2.16 2.16c-13.74 14.61-24.9 34.94-26.4 55.22-.34 4.42-.34 4.42-1.44 6.62h-3l-3-12-5-1v-7h4l-.06-1.84c-.86-28.89 6.08-53.03 26.25-74.46 16.07-16.44 35.53-26.52 56.27-35.83.8-.36 1.61-.72 2.43-1.09C178 104 178 104 181 104c-2.28-5.8-4.64-11.53-7.27-17.19C173 85 173 85 173 83zM257 297c.03 1.94.05 3.87.06 5.81.01 1.08.03 2.16.04 3.27C257 309 257 309 256 312h12v4l-12 2c-.05 5.5-.09 10.99-.11 16.49-.01 1.86-.02 3.73-.04 5.59-.93 16.65-.93 16.65 4.15 31.92l3-1c1.13-2.2 1.13-2.2 2-5 .39-1.1.78-2.19 1.18-3.32 2.79-8.34 4.66-16.46 5.66-25.21.89-7 3.79-11.79 9.16-16.47 3.74-1.25 7.08-1.47 11-1 2.17 1.54 2.82 2.64 4 5 .81 6.48-.06 10.78-4 16-2.64 1.19-2.64 1.19-5 2 .28 2.11.58 4.21.88 6.31.16 1.17.32 2.35.49 3.55.45 3.29.45 3.29 2.63 6.14 6.52-2.11 9.78-7.15 13.11-12.93.68-1.33 1.29-2.7 1.89-4.07h3c.72 7.16-2.51 12.35-6.81 17.81-3.43 3.75-6.98 5.93-12.17 6.35-5.81-.28-9.06-3.13-13.02-7.16l-2-2c-.29.86-.58 1.71-.88 2.6-4.97 13.86-4.97 13.86-10.12 17.4-3.93 1.52-7.23 1.7-11.18.14-7.53-4.37-11.13-9.88-13.34-18.16-.16-.66-.32-1.31-.48-1.98-.38.58-.76 1.15-1.14 1.75-2.51 3.38-4.37 5.88-8.56 6.92-4.41.12-7.66-.4-11.74-2.11-6.13-6.13-7.66-14.16-7.75-22.59.02-16.68.02-16.68 3.88-22.53 3.27-2.04 5.52-1.84 9.31-1.44 1.68.63 3.35 1.29 5 2-.01.9-.01 1.79-.02 2.72-.01 3.36-.03 6.72-.03 10.09l-.03 4.34c-.08 10.96-.08 10.96 1.08 21.85 3.77-1.26 4.2-2.33 6.12-5.75 4.04-8.29 3.71-16.84 3.8-25.9.11-3.18.55-6.22 1.08-9.35l-2 1c-2.33.04-4.67.04-7 0l1-3 9-1c.1-1.34.21-2.68.31-4.06.52-4.54 1.48-7.93 3.69-11.94 3.43-2.72 8.1-2.95 12-1zm33 29c-1.6 3.51-2.22 6.14-2 10 2.35-2.55 2.98-3.71 3.19-7.25-.06-.91-.13-1.81-.19-2.75h-1zM443 321c1.59 1.23 1.59 1.23 3.06 2.62.97.79 1.94 1.57 2.94 2.38 2.34-.29 4.67-.62 7-1 4.32 2.71 6.18 5.69 8.31 10.25.51 1.08 1.03 2.16 1.55 3.27.38.82.75 1.64 1.14 2.48 2.76-1.05 5.09-2.06 7.56-3.69 2.44-1.31 2.44-1.31 4.75-1 .56.23 1.12.46 1.69.69-1.46 3.69-3.3 5.16-6.62 7.25-.82.52-1.64 1.04-2.48 1.58-.63.38-1.25.77-1.9 1.17.14 1.03.29 2.06.44 3.12 4.99 37.42 4.99 37.42-5.06 51.39-3.28 3.55-6.83 4.64-11.5 4.99-3.88-.5-3.88-.5-6.32-2.88-4.48-7.53-3.35-18.07-1.88-26.54 1.54-5.76 3.34-10.21 6.76-15.08 4.97-8.2 1.34-19.14-.44-28-1.21 2.69-2.42 5.37-3.62 8.06-.37.81-.73 1.62-1.1 2.45-2.88 6.47-5.48 13.01-7.96 19.65C438 367 438 367 435 369c-4.16.34-6.92.41-10.81-1.06-4.67-4.14-5.38-9.05-6.07-15-.53-9.98 1.02-20.09 7.15-28.23 4.79-4.74 11.39-5.96 17.73-3.71zm-2 10c-.51 1.73-1.01 3.46-1.5 5.19-.28.96-.56 1.92-.84 2.92-.63 2.74-.78 5.09-.66 7.89 2.84-3.38 4.54-6.84 6-11-.2-2.83-.2-2.83-1-5h-2zm-4 16l1 2zm19 19c-4.88 10.24-7.31 19.52-6 31 1.25 2.42 1.25 2.42 3 4h2c4.76-10.92 3.68-23.42 2-35h-1zM360 285c7.12 10.43 9.72 22.79 12 35 .2 1.05.39 2.1.59 3.18 1.96 18.36 3.6 43.88-7.59 59.82-4.14 4.04-8.06 6.28-13.88 6.38-6-.14-9.11-2.31-13.24-6.57-12.5-18.74-12.43-48.29-8.63-69.81 2.56-10.23 6.63-18.71 15.4-24.86 5.35-3.2 9.32-5.53 15.35-3.14zm-8.02 7.57c-6.26 7.67-5.72 23.01-5.98 32.43-.02.77-.04 1.53-.07 2.32-.25 10.49.08 20.9.88 31.37l.21 2.96c.54 6.29 1.42 12.53 3.98 18.35 2.48 2.18 2.48 2.18 5 3 10.55-8.79 11.1-24.31 12.29-37.12.58-18.34-3.25-38.81-12.29-54.88-2.16-.2-2.16-.2-4.02 1.57zM197.727 288.781c3.12 1.67 5.01 3.52 7.27 6.22.5.49.5.49 1 1 .04 1.66.05 3.33 0 5-3.37-.55-5.08-1.06-8-3-2.09.02-2.09.02-4 1-4.7 6.11-4.8 13.66-4 21 2.18 8.8 6.16 16.48 10.63 24.31 6.14 10.82 9.68 18.95 8.37 31.69-1.75 3.91-3.22 5.43-6.62 7.94-5.9 1.85-11.71 1.03-17.38-1.38-6.4-3.53-11.97-9.53-16-15.56v-3c6.23.13 8.81 2.17 13.11 6.6 1.81 1.67 1.81 1.67 4.13 1.11.58-.23 1.16-.47 1.76-.71 2.07-7.97-.37-14.79-4-22-1.96-3.3-4.13-6.44-6.32-9.59-3.63-5.2-6.4-10.48-8.68-16.41-.43-1.11-.86-2.23-1.31-3.38-1.72-9.05-1.78-17.69 3.31-25.62 7.67-9.29 16.29-9.72 26.73-5.22zM209 159h42c3.8 7.6-2 23.08-4.52 30.88-3.05 8.83-7.34 19.9-14.48 26.12-3.84 1.15-5.86 1.01-9.43-.77-.82-.39-1.63-.79-2.47-1.19-.84-.43-1.67-.85-2.54-1.29-.83-.41-1.66-.82-2.52-1.24-2.36-1.16-4.7-2.33-7.04-3.51l-3.6-1.8c-.79-.39-1.58-.79-2.4-1.2.27-1.17.27-1.17.55-2.36 1.62-7.22 2.97-14.44 4.07-21.76.13-.8.25-1.6.38-2.42.96-6.5 1.45-12.88 2-19.46zM79 98c5.36.51 9.2 1.85 13.94 4.38 4.93 2.57 9.79 4.83 15.06 6.62-.43 5.03-1.14 9.68-2.44 14.56-1.89 7.73-2.36 15.55-2.91 23.48-.07 1.01-.15 2.02-.22 3.07-.06.92-.12 1.83-.18 2.78C102 155 102 155 101 156c-3.03.09-6.04.12-9.07.1-.91 0-1.81-.01-2.75-.01-2.91 0-5.83-.01-8.74-.03-1.97 0-3.94-.01-5.91-.01-4.85-.01-9.69-.03-14.53-.05-4.1-15.25 4.74-34.67 12.19-47.75 2.1-3.57 4.25-6.99 6.81-10.25z"/><path d="M163.418 157.855c.91-.01 1.83-.01 2.77-.02h3c1.01-.01 2.03-.01 3.07-.01 2.15-.01 4.29-.01 6.44-.01 3.29 0 6.58-.02 9.87-.04 2.08 0 4.16 0 6.24-.01.99 0 1.98-.01 3-.02.92.01 1.83.01 2.77.01h2.45c1.97.25 1.97.25 3.97 2.25.09 2.7.05 5.24-.12 7.93l-.15 2.4c-.83 11.46-3.48 22.67-6.73 33.67-4.96.13-9.34-.35-14.19-1.38-9.52-1.93-19.13-2.78-28.81-3.62-1.2-3.6-1.14-6.89-1.13-10.63v-2.25-4.71c.01-2.41 0-4.81 0-7.21v-4.58c0-.72 0-1.44-.01-2.18.02-3.09.16-5.49 1.14-8.44 2.36-1.18 3.79-1.14 6.42-1.15zM134 309c3.38-.5 3.38-.5 7 0 5.56 4.93 7.77 12.77 9.25 19.81.96 3.82.96 3.82 3.47 6.71 2.07 1.06 4.05 1.82 6.28 2.48.69.22 1.37.44 2.08.67 1.62.49 3.27.92 4.92 1.33l-1 3c-1.77.03-3.54.05-5.31.06-.99.01-1.97.03-2.99.04-2.7-.1-2.7-.1-5.7-1.1-.17.93-.34 1.86-.52 2.82-2.78 14.22-2.78 14.22-8.23 20.06-4.72 2.35-9.32 2.68-14.31 1.18-4.87-2.04-7.81-5.94-10.94-10.06-.44.6-.89 1.21-1.34 1.83-3.8 4.97-6.62 7.76-12.91 8.61-5.12-.6-7.51-2.52-10.75-6.44-4.41-7.23-6.16-13.12-6.31-21.56l-.09-2.04c-.04-3.12 0-4.93 2.07-7.35 2.81-1.27 4.82-1.42 7.89-1.36 1.43 0 1.43 0 2.88.01 2.56.3 2.56.3 5.56 2.3.49 1.97.49 1.97.66 4.36.07.87.14 1.74.22 2.63.06.91.12 1.82.18 2.76.42 5.71.79 10.87 2.94 16.25 2.57-6.3 4.43-11.98 4.73-18.81.3-2.43 1.07-4.08 2.27-6.19 1.43-.14 2.87-.23 4.31-.31.8-.06 1.6-.12 2.43-.18 2.26.49 2.26.49 3.86 2.38 1.93 4.3 3.19 8.7 4.46 13.23.51 1.8 1.02 3.59 1.54 5.39.22.79.44 1.58.67 2.39.72 2.36.72 2.36 2.73 5.1l3 1c.48-1.56.96-3.12 1.44-4.69.26-.87.53-1.74.81-2.63.71-2.56 1.27-5.07 1.75-7.68.2-.99.2-.99.41-2 .75-7.11-3.15-11.62-7.25-16.98-3.35-4.68-4.66-8.25-4.16-14.02l2-3z"/><path d="M63.313 287.625c.68-.01 1.36-.03 2.06-.04 4.38.04 7.16.74 10.63 3.42 3.06 4.53 3.66 8.65 3 14-1.12 3.93-2.61 7.7-4.13 11.5l-1.24 3.21c-1.51 3.9-3.04 7.8-4.58 11.68-9.28 22.37-9.28 22.37-9.05 45.61 9.38.77 17.29-.79 26.28-3.31.83-.23 1.65-.46 2.51-.7.74-.21 1.48-.43 2.24-.65 1.97-.34 1.97-.34 4.97.66-.5 1.48-.5 1.48-1 3a62.09 62.09 0 0 1-6.81 2.56c-1.02.32-1.02.32-2.06.65-10.26 3.17-24.92 7.2-35.13 2.35-5.48-4.68-8.63-10.9-9.21-18.09-.35-21.29 8.84-39.45 19.9-57.09 3.9-6.23 3.9-6.23 5.31-13.38-1.59.14-3.17.28-4.75.43-.88.08-1.77.16-2.67.25-2.52.25-2.52.25-4.65.85-2.13.51-3.99.56-6.18.53l-3.75-.06v-4c6.08-2.46 11.81-3.33 18.31-3.38zM69.438 157.867h7.84c2.71.01 5.42 0 8.14 0h5.14c1.23 0 1.23 0 2.47-.01 5.74.03 5.74.03 7.97 1.14-1.36 4.33-3.04 8.38-4.94 12.5-4.94 11.32-6.49 22.46-6.42 34.75-.09 6.11-.09 6.11-2.86 9.4-2.78 1.35-2.78 1.35-5.38 1.35-8.55-3.57-13.11-17.92-16.59-26.02-1.73-4.24-2.9-8.5-3.81-12.98-.2-.93-.4-1.87-.61-2.83-1.1-5.48-1.6-10.58-1.39-16.17 3.26-1.63 6.86-1.14 10.44-1.13zM184.188 203.438c1.2.18 1.2.18 2.43.37 4.03.66 7.64 1.46 11.38 3.19-.51 5.6-2 9.83-4.56 14.82l-1.07 2.1c-3.07 5.87-6.6 11.43-11.37 16.08h-2v2c-7.47 6.26-13.17 9-23 9v-49c6.97-3.48 20.63.27 28.19 1.44zM154 64c.03 6.96.04 13.92.05 20.88l.03 7.11c.01 3.4.01 6.8.02 10.19 0 1.07.01 2.14.01 3.24v2.97c.01.87.01 1.73.01 2.63C154 113 154 113 153 114c-12.47.07-28.67-.34-40-6 .51-5.68 2.07-9.9 4.69-14.94.36-.7.72-1.41 1.09-2.13 2.64-5.04 5.42-9.68 9.22-13.93.89-1.03.89-1.03 1.8-2.07 5.98-6.47 15-13.47 24.2-10.93zM154 202v49c-12.83-1.43-19.8-5.81-28.1-15.44-3.98-5.16-7.1-10.57-9.9-16.44-.3-.63-.61-1.26-.92-1.91-1.64-3.6-2.21-6.29-2.08-10.21 7.2-2.42 14.22-3.79 21.75-4.69 1-.13 2-.26 3.04-.39 12.84-1.61 12.84-1.61 16.21.08zM154 159c.02 5.54.04 11.07.05 16.61l.03 5.65c.01 2.71.01 5.41.02 8.11 0 .85.01 1.7.01 2.57 0 2.02-.05 4.04-.11 6.06-1.57 1.57-3.27 1.27-5.45 1.43-.93.07-1.85.14-2.8.22-.99.07-1.98.15-3 .23-7.63.62-14.76 1.59-22.16 3.52-3.32.77-6.21.84-9.59.6l-1-2c6.37-17.25 22.09-32.47 36.82-43.06 2.78-1.2 4.29-.62 7.18.06zM235 108c1.82.18 1.82.18 4 1 9.43 13.34 12 31.32 12 47h-39c0-4.79.14-5.87 2.34-9.74.5-.89 1.01-1.79 1.52-2.71.54-.95 1.08-1.89 1.64-2.86 1.11-1.98 2.21-3.95 3.31-5.92.81-1.47.81-1.47 1.65-2.96 2.48-4.53 4.78-9.15 7.04-13.8 1.68-3.44 3.48-6.75 5.5-10.01zM389 313.813c.68-.01 1.36-.03 2.06-.04 1.94.23 1.94.23 4.94 2.23.51 2.16.51 2.16.69 4.62l.2 2.48c.03.63.07 1.25.11 1.9l1.88-1.94c2.62-2.54 3.76-2.99 7.37-3.75 3.75.69 3.75.69 5.51 2.81 2.13 3.55 3.93 6.95 5.24 10.88-3.18 1-4.61 1.16-7.75-.13-2.25-1.87-2.25-1.87-3.06-4.56-.06-.76-.13-1.53-.19-2.31h-3c-3.97 12.21-5.31 23.22-5 36-8.21 2.8-8.21 2.8-12 2-7.51-7.99-7.34-18.79-7.31-29.07-.02-1.14-.03-2.29-.05-3.47 0-6.19.11-11.09 3.36-16.46 2.64-.88 4.28-1.16 7-1.19z"/><path d="M138 64c-1.49 3.66-3.51 5.42-6.56 7.88-9.41 8.29-14.76 18.96-19.35 30.45C111 105 111 105 110 106c-6.64.12-11.59-1.93-17.44-4.81-.71-.35-1.42-.69-2.15-1.04-2.92-1.5-5.07-2.63-6.88-5.41-.18-.58-.35-1.15-.53-1.74 11.37-12.29 36.49-33.63 55-29zM200 209c7.81.14 20.25 3.25 26 9 .45 3.24.27 4.61-1.62 7.32C211.79 237.85 192.34 251 174 251c0-4 0-4 1.54-5.68.69-.54 1.38-1.08 2.08-1.63 10.91-9.11 17.71-21.36 22.38-34.69zM198 420c2.27 1.02 2.27 1.02 4 2l1-1c2.33-.04 4.67-.04 7 0 .1 4.98.17 9.96.22 14.94.02 1.69.05 3.38.08 5.08.05 2.44.07 4.88.09 7.32l.06 2.26c.01 5.53-1.34 9.8-4.45 14.4-5.21 4.04-10.54 4.52-17 4-2.41-.52-4.65-1.22-7-2v-6c.99.17 1.98.33 3 .5 7.34 1.06 7.34 1.06 14.44-.56 2.25-2.8 2.29-5.43 2.56-8.94-.5.47-.99.95-1.5 1.44-3.37 2.1-6.59 2.68-10.5 2.56-4.71-1.63-7.27-3.85-10-8-2.35-7.36-1.77-15.28 1.75-22.12 3.99-5.99 9.55-6.93 16.25-5.88zm-9.44 8.25c-2.65 4.81-2.28 10.46-1.56 15.75 1.36 3.33 1.36 3.33 4 5 2.96.83 2.96.83 6 0 2.83-2.33 2.83-2.33 5-5l1-1c.2-2.1.31-4.21.38-6.31.04-1.15.09-2.3.14-3.49-.23-3.36-.23-3.36-2.82-5.58-4.59-2.75-8.11-3.09-12.14.63zM160.031 62.996c9.24 1.65 16.97 6.8 22.97 14v3h-14c.66 1.33 1.32 2.65 2 4.02.86 1.74 1.71 3.49 2.56 5.23.44.88.88 1.75 1.33 2.65.41.84.82 1.69 1.24 2.56.38.77.76 1.55 1.16 2.35.83 2.57.81 3.73-.29 6.19a64.99 64.99 0 0 1-7.31 3.69l-2.06.93c-6.53 2.92-6.53 2.92-9.63 3.38-2.41-2.4-2.25-2.95-2.26-6.23-.01-.87-.01-1.75-.02-2.65 0-.95.01-1.89.01-2.87v-2.93c0-2.05 0-4.1.01-6.16.01-3.14 0-6.29-.01-9.44v-5.97c0-.94 0-1.89-.01-2.86.01-.88.01-1.75.02-2.65v-2.34c.39-2.85 1.4-3.89 4.29-3.9zM318 405h8v51h-8l-1-3c-.56.48-1.12.97-1.7 1.47-3.87 2.58-7.81 2.29-12.3 1.53-3.35-1.66-5.45-3.9-7.14-7.28-1.91-6.03-1.98-13.77.33-19.72 2.29-3.8 4.78-6.99 8.81-9 2.06-.17 2.06-.17 4.44-.19.78-.01 1.56-.03 2.37-.04C314 420 314 420 317 422zm-12.63 22.2c-3.12 4.11-3.6 10.21-3.15 15.23.86 3.9 1.39 5.31 4.78 7.57 3.68-.13 6.15-.4 9.19-2.55 2.51-3.39 2.4-6.46 2.31-10.51.02-.72.03-1.44.05-2.18-.03-3.31-.08-5.25-2.36-7.73-3.54-1.66-7.54-2.25-10.82.17zM65 414c20.8 0 20.8 0 26.5 3.56 2.29 3.72 2.41 7.2 1.5 11.44-2.5 3.06-2.5 3.06-5 5l2.94 1.88C94 438 94 438 95 440c.53 4.42.54 7.94-1.5 11.94C85.83 458.26 73.87 456 65 456v-42zm7 6v12c6.72-.17 6.72-.17 12.69-2.75 1.53-2.19 1.53-2.19 1.31-4.87-.78-2.47-.78-2.47-2.77-3.52-3.74-1.44-7.25-.98-11.23-.86zm0 17v13l5.25.12c.97.03 1.95.05 2.95.08 2.86-.2 4.44-.63 6.8-2.2 1.26-2.3 1.26-2.3 1-5-2.16-2.56-3.99-4.5-7-6-3-.14-5.99-.04-9 0zM111 111c6.85.62 13.64 1.47 20.44 2.5.88.13 1.76.26 2.68.39.84.13 1.69.26 2.56.39.76.12 1.52.23 2.3.35C141 115 141 115 144 116c-.17 1.78-.17 1.78-1 4-2.27 1.75-2.27 1.75-5.25 3.56-11.84 7.6-21.54 16.86-30.75 27.44l-2-1c-.51-8.51.19-16.24 1.88-24.56.26-1.29.26-1.29.52-2.6.88-4.12 1.85-7.98 3.6-11.84zM412 405h7l1 19 6-4c3.11-.74 5.87-.68 9 0 3.28 2.53 4.69 4.08 6 8 .08 2.14.11 4.28.1 6.42-.01 1.25-.01 2.51-.01 3.8l-.03 3.97c0 1.33-.01 2.67-.01 4-.01 3.27-.03 6.54-.05 9.81h-7l-.06-2.03c-.1-3.05-.21-6.11-.32-9.16l-.09-3.19-.12-3.1c-.04-1.41-.04-1.41-.09-2.84-.34-2.85-1.14-5.08-2.32-7.68-4.96.35-4.96.35-9.2 2.71-2.18 2.77-2.33 4.21-2.41 7.71-.03 1.03-.06 2.05-.1 3.11l-.04 3.22-.09 3.27c-.07 2.66-.12 5.32-.16 7.98h-7v-51zM199 134c1.46 2.22 2.61 4.25 3.75 6.62.32.61.63 1.21.96 1.84 2.13 4.32 2.7 7.75 2.29 12.54-1 1-1 1-2.9 1.12-.84 0-1.67 0-2.53-.01h-2.85c-1.02 0-2.05-.01-3.1-.01-1.04 0-2.08-.01-3.16-.01-3.34 0-6.68-.01-10.02-.03-2.26 0-4.52-.01-6.78-.01-5.55-.01-11.11-.03-16.66-.05.32-2.37.32-2.37 1-5 2.28-1.69 4.32-2.95 6.81-4.25.7-.38 1.4-.75 2.12-1.14 5.85-3.09 11.81-5.96 17.82-8.73.86-.41 1.71-.81 2.6-1.22.81-.37 1.61-.73 2.45-1.11.71-.32 1.43-.65 2.16-.98 2.46-.69 3.69-.55 6.04.43zM106 209h5c.35.88.7 1.77 1.07 2.68 5.3 12.9 11.96 26.19 23.93 34.13.99.72 1.98 1.45 3 2.19v4c-12.28-.94-28.88-6.3-38-15-2.37-8.72 2.26-19.79 5-28zM280.746 421.145c3.54 2.91 4.06 5.84 4.49 10.31.18 2.81.3 5.61.39 8.42l.12 2.95c.09 2.39.18 4.78.25 7.18l4 1-1 5c-7.5.36-7.5.36-10-1.5-.33-.5-.66-.99-1-1.5-.61.49-1.23.99-1.87 1.5-4.43 2.12-8.29 2.29-13.13 1.5-3.11-1.28-3.82-2.19-6-5-1.03-4.45-.6-7.85 1.5-11.88 5.63-4.78 11.32-5.51 18.5-5.12l-2-7c-7.74-.39-7.74-.39-15 2v-7c6.28-2.79 14.34-3.53 20.75-.86zm-16.75 21.86c.17 3.07.17 3.07 1 6 2.81 1.4 4.89 1.24 8 1 2.5-.84 2.5-.84 4-3 .34-2.76.19-5.21 0-8-5.29-.25-9.15.15-13 4zM126.805 421.395c2.2 1.61 2.2 1.61 3.2 3.61.14 1.71.22 3.43.28 5.15.03 1.02.07 2.05.11 3.1l.21 6.49c.04 1.02.08 2.05.11 3.1.03.94.06 1.88.1 2.85.04 2.33.04 2.33 1.19 4.31 2.02.65 2.02.65 4 1l-1 5c-7.51.36-7.51.36-10-1.5-.33-.5-.66-.99-1-1.5-.81.49-1.61.99-2.44 1.5-4.38 1.84-7.87 2.14-12.56 1.5-2.91-1.24-4.41-2.27-6.38-4.69-.97-3.58-.7-6.82.38-10.31 3.12-4.12 5.96-5.94 11-7 3-.15 5.99-.12 9 0l-2-7c-5.74-.21-10.61-.28-16 2v-7c6.77-2.47 15.15-3.91 21.8-.61zm-16.8 21.61c-.25 2.45-.25 2.45 0 5 1.86 2.28 1.86 2.28 4.81 2.31 3.7-.37 5.46-.75 8.19-3.31.43-2.8.23-5.15 0-8-5.4-.32-9.06.05-13 4zM356 420c3.75 1.47 5.37 2.59 7.02 6.28 1.61 4.89 1.98 8.45 1.98 13.72h-23c2.29 6.54 2.29 6.54 5 9 6.24 1.64 11.9.75 18-1v6c-5.64 3.64-13.57 2.51-20 2-4.51-1.13-7.07-3.63-9.44-7.56-2.45-5.71-2.68-11.85-.83-17.78 4.41-9.66 11.29-11.6 21.27-10.66zm-11.94 7.12c-1.5 2.41-1.5 2.41-2.06 7.88h15c-.23-6.63-.23-6.63-3-9-5.2-.54-5.2-.54-9.94 1.12zM165 420c3.28 2.53 4.69 4.08 6 8 .08 2.14.11 4.28.1 6.42-.01 1.25-.01 2.51-.01 3.8l-.03 3.97c0 1.33-.01 2.67-.01 4-.01 3.27-.03 6.54-.05 9.81h-7l-.06-2.14c-.1-3.2-.21-6.41-.32-9.61l-.09-3.37-.12-3.24c-.04-1.48-.04-1.48-.09-2.98-.32-2.67-.96-4.37-2.32-6.66-4.61.31-4.61.31-8.7 2.2-1.79 2.48-1.73 4.29-1.81 7.34-.04 1.08-.07 2.15-.11 3.25-.02 1.12-.04 2.24-.07 3.4-.03 1.13-.07 2.26-.1 3.43-.08 2.79-.15 5.58-.21 8.38h-8v-35h8l1 2c.64-.5 1.28-.99 1.94-1.5 4.09-2.01 7.58-2.39 12.06-1.5zM389.438 419.875c1.13 0 2.27-.01 3.43-.01 2.58.11 4.68.38 7.13 1.13v6h-16l-1 4c1.04.38 2.08.76 3.14 1.14 1.37.52 2.74 1.03 4.11 1.55.68.25 1.37.49 2.07.74 4.47 1.72 7.08 3.37 9.68 7.57.56 3.4.76 5.72-1.02 8.75-2.15 2.72-3.67 4.15-6.98 5.25-2.45.13-4.91.18-7.37.19-1.31.02-2.62.03-3.96.05-3.41-.22-5.63-.75-8.67-2.24v-6c.61.16 1.21.32 1.84.48 6.35 1.47 11.73 1.54 18.16.52-.13-2.44-.13-2.44-1-5-2.08-1.36-2.08-1.36-4.68-2.12-.91-.32-1.81-.64-2.74-.97l-2.58-.91c-5.69-2.54-5.69-2.54-8-6-.79-6.99-.79-6.99 2.32-10.93 4.09-3.14 7.09-3.2 12.12-3.19zM219 405h20v51h-7v-45h-13v-6z"/><path d="M173 63c15.5.61 31.25 9.31 43 19l-1 4c-3.73-.42-7.46-.86-11.19-1.31-1.05-.12-2.11-.24-3.19-.36-1.54-.19-1.54-.19-3.1-.38-.94-.11-1.88-.22-2.84-.33-5.23-1.21-8.28-4.01-11.62-8.06-2.34-2.73-4.43-5.04-7.5-6.94C173 67 173 67 172 64zM223.5 306.75c2.5.25 2.5.25 4.5 2.25v4c-2.96 1.48-5.74 1.06-9 1-.12-2.37-.12-2.37 0-5 2-2 2-2 4.5-2.25z"/></g></svg>